# xmcd CD database file
#
# Track frame offsets:
#	150
#	27181
#	54801
#	65310
#	76251
#	125676
#	139050
#	154243
#	183140
#	210355
#	229741
#	250817
#	265810
#	296305
#
# Disc length: 4249 seconds
#
# Revision: 0
# Processed by: cddbd v1.5.2PL0 Copyright (c) Steve Scherf et al.
# Submitted via: CDex 1.70beta2
#
DISCID=b410970e
DTITLE=オムニバス - アロマ・ジャズ
DYEAR=2010
DGENRE=Jazz
TTITLE0=ライク・サムワン・イン・ラブ
TTITLE1=コートにすみれを
TTITLE2=マイ・ファニー・ヴァレンタイン
TTITLE3=あなたと夜と音楽と
TTITLE4=枯葉
TTITLE5=クライ・ミー・ア・リヴァー
TTITLE6=ジャンゴ
TTITLE7=いそしぎ
TTITLE8=ブルース・イン
TTITLE9=イージー・リヴィング
TTITLE10=星影のステラ
TTITLE11=ムーン・ドリームス
TTITLE12=ディープ・イン・ア・ドリーム
TTITLE13=マイ・フィーリッシュ・ハート
EXTD=YEAR: 2010
EXTT0=
EXTT1=
EXTT2=
EXTT3=
EXTT4=
EXTT5=
EXTT6=
EXTT7=
EXTT8=
EXTT9=
EXTT10=
EXTT11=
EXTT12=
EXTT13=
PLAYORDER=
